<?xml version="1.0" encoding="utf-8"?>
<!-- Generator: Adobe Illustrator 20.1.0, SVG Export Plug-In . SVG Version: 6.00 Build 0)  -->
<svg version="1.1" id="Layer_1" xmlns="http://www.w3.org/2000/svg" xmlns:xlink="http://www.w3.org/1999/xlink" x="0px" y="0px"
	 viewBox="0 0 256 256" style="enable-background:new 0 0 256 256;" xml:space="preserve">
<style type="text/css">
	.st0{fill:#F69320;}
	.st1{fill:#FFFFFF;}
</style>
<rect class="st0" width="256" height="256"/>
<g>
	<path class="st1" d="M110.2,72.4h18.5h7.6c3.2,0,5.8-2.6,5.8-5.8v-23c0-3.2-2.6-5.8-5.8-5.8h-30.7c-3.2,0-5.8,2.6-5.8,5.8v8v13.8
		v1.2c0,0,0,0.1,0,0.1c0,2.3-0.4,7.2-2.3,11.5c-2,2.8-5.1,4.8-9.6,4.9h-21c-3.2,0-5.8,2.6-5.8,5.8v0v30.7v0c0,3.2,2.6,5.8,5.8,5.8
		h21c4.6,0.1,7.6,2.2,9.6,4.9c1.9,4.3,2.2,9.2,2.3,11.4c0,0.1,0,0.1,0,0.1v1.2v13.8v8c0,3.2,2.6,5.8,5.8,5.8h30.7
		c3.2,0,5.8-2.6,5.8-5.8v-23c0-3.2-2.6-5.8-5.8-5.8h-7.6h-18.5c-6.3,0-10.2-2.6-12.6-6c-1.5-3.5-2-7.4-2.1-10c0-0.2,0.1-0.4,0.1-0.6
		v0V117v-5.5V97v-5.5v-2.6v0c0-0.2,0-0.4-0.1-0.6c0.1-2.6,0.5-6.5,2.1-10C100.1,74.9,103.9,72.4,110.2,72.4z"/>
	<path class="st1" d="M147.7,183.6h-18.5h-7.6c-3.2,0-5.8,2.6-5.8,5.8v23c0,3.2,2.6,5.8,5.8,5.8h30.7c3.2,0,5.8-2.6,5.8-5.8v-8
		v-13.8v-1.2c0,0,0-0.1,0-0.1c0-2.3,0.4-7.1,2.3-11.5c2-2.8,5.1-4.8,9.6-4.9h21c3.2,0,5.8-2.6,5.8-5.8v0v-30.7v0
		c0-3.2-2.6-5.8-5.8-5.8h-21c-4.6-0.1-7.6-2.2-9.6-5c-1.9-4.3-2.2-9.2-2.3-11.4c0,0,0-0.1,0-0.1v-1.2V99.1v-8c0-3.2-2.6-5.8-5.8-5.8
		h-30.7c-3.2,0-5.8,2.6-5.8,5.8v23c0,3.2,2.6,5.8,5.8,5.8h7.6h18.5c6.3,0,10.2,2.6,12.6,6c1.5,3.5,2,7.4,2.1,10
		c0,0.2-0.1,0.4-0.1,0.6v0v2.6v5.5V159v5.5v2.6v0c0,0.2,0,0.4,0.1,0.6c-0.1,2.6-0.5,6.5-2.1,10C157.9,181.1,154,183.6,147.7,183.6z"
		/>
</g>
</svg>
